{"title":"Alicia Keys Ft. Kendrick Lamar - It's On Again [Music Video] 720","uid":10901311,"size":43790402,"categoryP":"video","categoryS":"music_videos","magnet":"?xt=urn:btih:5cf163f123f2b8a913ef86c3f9f3907ff8067144&amp;dn=Alicia+Keys+Ft.+Kendrick+Lamar+-+It%27s+On+Again+%5BMusic+Video%5D+720&amp;tr=udp%3A%2F%2Ftracker.openbittorrent.com%3A80&amp;tr=udp%3A%2F%2Fopen.demonii.com%3A1337&amp;tr=udp%3A%2F%2Ftracker.coppersurfer.tk%3A6969&amp;tr=udp%3A%2F%2Fexodus.desync.com%3A6969","seeders":2,"leechers":0,"uploader":"Sbyky","files":1,"time":1409188851,"description":"\n\nGeneral\nComplete name                            : Alicia Keys Ft. Kendrick Lamar - It's On Again [Music Video] 720p [Sbyky].MP4\nFormat                                   : MPEG-4\nFormat profile                           : Base Media\nCodec ID                                 : isom\nFile size                                : 41.8 MiB\nDuration                                 : 3mn 49s\nOverall bit rate mode                    : Variable\nOverall bit rate                         : 1 523 Kbps\nEncoded date                             : UTC 2014-04-12 22:07:06\nTagged date                              : UTC 2014-04-12 22:07:06\n\nVideo\nID                                       : 1\nFormat                                   : AVC\nFormat/Info                              : Advanced Video Codec\nFormat profile                           : &lt;a class=&quot;__cf_email__&quot; href=&quot;/cdn-cgi/l/email-protection&quot; data-cfemail=&quot;3e735f57507e720d100f&quot;&gt;[email&amp;#160;protected]&lt;/a&gt;&lt;script cf-hash='f9e31' type=&quot;text/javascript&quot;&gt;\n/* &lt;![CDATA[ */!function(){try{var t=&quot;currentScript&quot;in document?document.currentScript:function(){for(var t=document.getElementsByTagName(&quot;script&quot;),e=t.length;e--;)if(t[e].getAttribute(&quot;cf-hash&quot;))return t[e]}();if(t&amp;&amp;t.previousSibling){var e,r,n,i,c=t.previousSibling,a=c.getAttribute(&quot;data-cfemail&quot;);if(a){for(e=&quot;&quot;,r=parseInt(a.substr(0,2),16),n=2;a.length-n;n+=2)i=parseInt(a.substr(n,2),16)^r,e+=String.fromCharCode(i);e=document.createTextNode(e),c.parentNode.replaceChild(e,c)}}}catch(u){}}();/* ]]&gt; */&lt;/script&gt;\nFormat settings, CABAC                   : Yes\nFormat settings, ReFrames                : 3 frames\nCodec ID                                 : avc1\nCodec ID/Info                            : Advanced Video Coding\nDuration                                 : 3mn 49s\nBit rate                                 : 1 395 Kbps\nWidth                                    : 1 280 pixels\nHeight                                   : 720 pixels\nDisplay aspect ratio                     : 16:9\nFrame rate mode                          : Constant\nFrame rate                               : 23.976 fps\nColor space                              : YUV\nChroma subsampling                       : 4:2:0\nBit depth                                : 8 bits\nScan type                                : Progressive\nBits/(Pixel*Frame)                       : 0.063\nStream size                              : 38.2 MiB (92%)\nEncoded date                             : UTC 2014-04-12 22:07:06\nTagged date                              : UTC 2014-04-12 22:07:06\n\nAudio\nID                                       : 2\nFormat                                   : AAC\nFormat/Info                              : Advanced Audio Codec\nFormat profile                           : LC\nCodec ID                                 : 40\nDuration                                 : 3mn 49s\nBit rate mode                            : Variable\nBit rate                                 : 126 Kbps\nChannel(s)                               : 2 channels\nChannel positions                        : Front: L R\nSampling rate                            : 44.1 KHz\nCompression mode                         : Lossy\nStream size                              : 3.44 MiB (8%)\nEncoded date                             : UTC 2014-04-12 22:06:57\nTagged date                              : UTC 2014-04-12 22:06:57\n\nShared By Sbyky\n","torrent":{"xt":"urn:btih:5cf163f123f2b8a913ef86c3f9f3907ff8067144","amp;dn":"Alicia+Keys+Ft.+Kendrick+Lamar+-+It%27s+On+Again+%5BMusic+Video%5D+720","amp;tr":["udp%3A%2F%2Ftracker.openbittorrent.com%3A80","udp%3A%2F%2Fopen.demonii.com%3A1337","udp%3A%2F%2Ftracker.coppersurfer.tk%3A6969","udp%3A%2F%2Fexodus.desync.com%3A6969"],"infoHash":"5cf163f123f2b8a913ef86c3f9f3907ff8067144","infoHashBuffer":{"type":"Buffer","data":[92,241,99,241,35,242,184,169,19,239,134,195,249,243,144,127,248,6,113,68]},"announce":[],"urlList":[]}}